<?xml version="1.0" standalone="no"?>
<!DOCTYPE svg PUBLIC "-//W3C//DTD SVG 20010904//EN"
 "http://www.w3.org/TR/2001/REC-SVG-20010904/DTD/svg10.dtd">
<svg version="1.0" xmlns="http://www.w3.org/2000/svg"
 width="200.000000pt" height="200.000000pt" viewBox="0 0 200.000000 200.000000"
 preserveAspectRatio="xMidYMid meet">
<metadata>
Created by potrace 1.11, written by Peter Selinger 2001-2013
</metadata>
<g transform="translate(0.000000,200.000000) scale(0.100000,-0.100000)"
fill="#000000" stroke="none">
<path d="M380 1610 l0 -90 85 0 85 0 0 -85 0 -85 -85 0 -85 0 0 -85 0 -84 -87
-3 -88 -3 -3 -88 -3 -87 -84 0 -85 0 0 -270 0 -270 90 0 90 0 0 175 0 175 85
0 85 0 0 -175 0 -175 85 0 84 0 3 -87 3 -88 180 0 180 0 0 90 0 90 -173 3
-173 2 3 83 3 82 425 0 425 0 3 -82 3 -83 -176 0 -176 0 3 -93 3 -92 174 -3
c133 -2 176 1 183 10 4 7 8 48 8 91 l0 77 85 0 85 0 0 175 0 175 85 0 85 0 0
-175 0 -175 90 0 90 0 0 270 0 270 -85 0 -84 0 -3 88 -3 87 -87 3 -88 3 0 84
0 85 -85 0 -85 0 0 48 c0 26 -3 64 -6 85 l-7 37 92 0 91 0 0 90 0 90 -95 0
-95 0 0 -85 0 -85 -85 0 -85 0 0 -90 0 -90 -257 2 -258 3 -3 88 -3 87 -89 0
-89 0 2 83 2 82 -92 3 -93 3 0 -91z"/>
</g>
</svg>
